# Blender v2.77 (sub 0) OBJ File: ''
# www.blender.org
mtllib naturePack_176.mtl
o Mesh1_Plate_Grass_Model
v 3.000000 0.300000 0.000000
v 0.000000 0.000000 0.000000
v 3.000000 0.000000 0.000000
v 0.000000 0.300000 0.000000
v 3.000000 0.300000 -3.000000
v 0.000000 0.300000 -3.000000
v 3.000000 0.000000 -3.000000
v 0.000000 0.000000 -3.000000
v 0.541453 0.429949 -0.541453
v 0.000000 0.191709 0.000000
v 0.541453 0.429949 -2.458547
v 0.000000 0.191710 -3.000000
v 0.000000 0.191710 -1.917094
v 1.082906 0.191710 -3.000000
v 2.458547 0.429949 -0.541453
v 3.000000 0.191709 0.000000
v 3.000000 0.191710 -1.082906
v 1.917094 0.191709 0.000000
v 3.000000 0.191710 -3.000000
v 2.458547 0.429949 -2.458547
vt 118.1100 2.7564
vt 118.1100 2.7564
vt 0.0000 2.7564
vt 0.0000 2.7564
vt 118.1100 -112.0930
vt 118.1100 -112.0930
vt 0.0000 -112.0930
vt 0.0000 -112.0930
vt -118.1100 -112.0930
vt 0.0000 -112.0930
vt 0.0000 -112.0930
vt -118.1100 -112.0930
vt -118.1100 2.7564
vt -118.1100 2.7564
vt 118.1100 11.8110
vt 118.1100 11.8110
vt 118.1100 11.8110
vt 0.0000 11.8110
vt 0.0000 11.8110
vt 0.0000 11.8110
vt 0.0000 11.8110
vt -118.1100 11.8110
vt -118.1100 11.8110
vt 0.0000 11.8110
vt -118.1100 118.1100
vt 0.0000 0.0000
vt 0.0000 118.1100
vt -118.1100 0.0000
vt 0.0000 11.8110
vt 0.0000 11.8110
vt 0.0000 11.8110
vt 118.1100 11.8110
vt 118.1100 11.8110
vt -118.1100 11.8110
vt -118.1100 11.8110
vt -118.1100 11.8110
vt -118.1100 0.0000
vt -118.1100 0.0000
vt 0.0000 0.0000
vt 118.1100 0.0000
vt 0.0000 0.0000
vt 118.1100 0.0000
vn 0.0000 0.9724 0.2334
vn 0.2334 0.9724 0.0000
vn 0.0000 0.9724 -0.2334
vn -0.2334 0.9724 0.0000
vn 0.0000 1.0000 0.0000
vn 0.0000 -0.0000 1.0000
vn 0.0000 0.0000 -1.0000
vn 0.0000 -1.0000 -0.0000
vn 1.0000 0.0000 0.0000
vn -1.0000 0.0000 0.0000
usemtl Leafs
s 1
f 1/1/1 15/2/1 9/3/1 4/4/1
f 5/5/2 20/6/2 15/7/2 1/8/2
f 5/9/3 6/10/3 11/11/3 20/12/3
f 11/13/4 6/14/4 4/4/4 9/3/4
f 11/11/5 9/3/5 15/7/5 20/12/5
usemtl Wood
f 1/15/6 18/16/6 16/17/6
f 18/16/6 1/15/6 4/18/6 10/19/6
f 14/20/7 6/21/7 5/22/7 19/23/7
f 6/21/7 14/20/7 12/24/7
f 7/25/8 2/26/8 8/27/8
f 2/26/8 7/25/8 3/28/8
f 17/29/9 1/30/9 16/31/9
f 1/30/9 17/29/9 19/32/9 5/33/9
f 13/34/10 6/35/10 12/36/10
f 6/35/10 13/34/10 10/19/10 4/18/10
f 2/26/6 18/16/6 10/19/6
f 2/26/10 13/34/10 12/36/10 8/37/10
f 13/34/10 2/26/10 10/19/10
f 14/20/7 7/38/7 8/39/7 12/24/7
f 7/40/9 17/29/9 16/31/9 3/41/9
f 17/29/9 7/40/9 19/32/9
f 18/16/6 2/26/6 3/42/6 16/17/6
f 7/38/7 14/20/7 19/23/7
